<mxfile host="app.diagrams.net" modified="2024-06-23T15:25:55.410Z" agent="Mozilla/5.0 (Macintosh; Intel Mac OS X 10_15_7) AppleWebKit/537.36 (KHTML, like Gecko) Chrome/125.0.0.0 Safari/537.36" version="24.0.2" etag="rzlXsVNBd5tQGyJAwgUd" type="github">
  <diagram name="페이지-1" id="ZxBige8bthRr2b87M9iU">
    <mxGraphModel>
      <root>
        <mxCell id="0" />
        <mxCell id="1" parent="0" />
      </root>
    </mxGraphModel>
  </diagram>
</mxfile>
